<svg id="Layer_1" data-name="Layer 1" xmlns="http://www.w3.org/2000/svg" xmlns:xlink="http://www.w3.org/1999/xlink" viewBox="0 0 64 64"><defs><style>.cls-1{fill:none;stroke:#000;stroke-linecap:round;stroke-linejoin:round;stroke-width:3px;}</style><symbol id="Icon_Dashboard" data-name="Icon Dashboard" viewBox="0 0 51 44.74"><g id="Dashboard"><g id="Window"><path id="Rectangle" class="cls-1" d="M1.5,5.67A4.17,4.17,0,0,1,5.67,1.5H45.33A4.17,4.17,0,0,1,49.5,5.67v33.4a4.17,4.17,0,0,1-4.17,4.17H5.67A4.17,4.17,0,0,1,1.5,39.07Z"/><path id="Shape_4" data-name="Shape 4" class="cls-1" d="M1.5,11.93h48"/><path id="Shape_3" data-name="Shape 3" class="cls-1" d="M8.8,6.2a.52.52,0,1,1-.52.52A.52.52,0,0,1,8.8,6.2"/><path id="Shape_2" data-name="Shape 2" class="cls-1" d="M15.07,6.2a.52.52,0,1,1-.53.52.52.52,0,0,1,.53-.52"/><path id="Shape_1" data-name="Shape 1" class="cls-1" d="M21.33,6.2a.52.52,0,1,1-.53.52.52.52,0,0,1,.53-.52"/></g><path id="Rectangle_5" data-name="Rectangle 5" class="cls-1" d="M9.85,21.33a1,1,0,0,1,1-1h4.17a1,1,0,0,1,1,1V25.5a1,1,0,0,1-1,1H10.89a1,1,0,0,1-1-1Z"/><path id="Rectangle_4" data-name="Rectangle 4" class="cls-1" d="M9.85,31.76a1,1,0,0,1,1-1h4.17a1,1,0,0,1,1,1v4.17a1,1,0,0,1-1,1H10.89a1,1,0,0,1-1-1Z"/><path id="Rectangle_3" data-name="Rectangle 3" class="cls-1" d="M22.37,21.33a1,1,0,0,1,1-1h4.17a1,1,0,0,1,1.05,1V25.5a1,1,0,0,1-1.05,1H23.41a1,1,0,0,1-1-1Z"/><path id="Rectangle_2" data-name="Rectangle 2" class="cls-1" d="M22.37,31.76a1,1,0,0,1,1-1h4.17a1,1,0,0,1,1.05,1v4.17a1,1,0,0,1-1.05,1H23.41a1,1,0,0,1-1-1Z"/><path id="Rectangle_1" data-name="Rectangle 1" class="cls-1" d="M34.89,21.33a1,1,0,0,1,1-1h4.18a1,1,0,0,1,1,1V25.5a1,1,0,0,1-1,1H35.93a1,1,0,0,1-1-1Z"/></g></symbol></defs><use width="51" height="44.74" transform="translate(6.5 8.63)" xlink:href="#Icon_Dashboard"/></svg>