<svg id="Layer_1" data-name="Layer 1" xmlns="http://www.w3.org/2000/svg" xmlns:xlink="http://www.w3.org/1999/xlink" viewBox="0 0 64 64"><defs><style>.cls-1{fill:none;stroke:#000;stroke-linecap:round;stroke-linejoin:round;stroke-width:3px;}</style><symbol id="Icon_File_Status" data-name="Icon File Status" viewBox="0 0 42.65 51"><g id="File_Status" data-name="File Status"><g id="Files"><path id="Shape_3" data-name="Shape 3" class="cls-1" d="M31.94,1.5a2.12,2.12,0,0,1,1.48.61l7.12,7.13a2.08,2.08,0,0,1,.61,1.47V41.15a2.09,2.09,0,0,1-2.08,2.09H9.85a2.1,2.1,0,0,1-2.09-2.09V3.59A2.09,2.09,0,0,1,9.85,1.5Z"/><path id="Shape_2" data-name="Shape 2" class="cls-1" d="M34.89,43.24v4.17A2.08,2.08,0,0,1,32.8,49.5H3.59A2.08,2.08,0,0,1,1.5,47.41V9.85A2.09,2.09,0,0,1,3.59,7.76H7.76"/></g><path id="Status" class="cls-1" d="M8.83,30.77h6.48a.68.68,0,0,0,.57-.3l1.81-2.71a.68.68,0,0,1,.64-.3.7.7,0,0,1,.57.42l1.77,4.44a.68.68,0,0,0,1.2.12l4.06-6.08a.66.66,0,0,1,.63-.3.69.69,0,0,1,.57.41l3.11,7.26a.69.69,0,0,0,1.2.11l1.83-2.75a.68.68,0,0,1,.57-.32h6.49"/></g></symbol></defs><use width="42.65" height="51" transform="translate(10.67 5.5)" xlink:href="#Icon_File_Status"/></svg>