<?xml version="1.0" encoding="UTF-8"?>
<svg width="46px" height="50px" viewBox="0 0 46 50" version="1.1" xmlns="http://www.w3.org/2000/svg" xmlns:xlink="http://www.w3.org/1999/xlink">
    <title>Group 3</title>
    <defs>
        <polygon id="path-1" points="0 0 45.98016 0 45.98016 49.13088 0 49.13088"></polygon>
    </defs>
    <g id="Symbols" stroke="none" stroke-width="1" fill="none" fill-rule="evenodd">
        <g id="Header-band-design-challenge" transform="translate(-33.000000, -17.000000)">
            <g id="Group-3" transform="translate(33.000000, 17.000000)">
                <mask id="mask-2" fill="white">
                    <use xlink:href="#path-1"></use>
                </mask>
                <g id="Clip-2"></g>
                <path d="M29.741792,24.569344 C27.645472,23.258304 25.855712,22.118784 24.038752,21.024704 C23.760032,20.856704 23.256032,20.734784 23.022752,20.872384 C20.988832,22.074944 18.992992,23.341184 16.771552,24.721984 C18.876832,26.037184 20.663072,27.181824 22.486432,28.264064 C22.789152,28.443584 23.352352,28.519744 23.626592,28.358144 C25.586912,27.201024 27.503392,25.969984 29.741792,24.569344 M42.906912,29.124864 C42.906912,27.595904 42.978592,26.444224 42.870432,25.310144 C42.828512,24.870144 42.478752,24.315264 42.101472,24.073344 C38.343072,21.660544 34.556512,19.291264 30.754912,16.946304 C30.398752,16.726464 29.780512,16.551744 29.466912,16.712704 C28.449312,17.233664 27.516832,17.921024 26.339232,18.681024 C31.926752,22.203264 37.251232,25.559744 42.906912,29.124864 M19.943072,30.617984 C14.210912,27.055424 8.776992,23.678144 3.066272,20.128384 C3.066272,21.697664 2.995552,22.868544 3.102112,24.022784 C3.142752,24.463744 3.488352,25.024064 3.864992,25.263744 C7.680992,27.693184 11.522272,30.082944 15.388512,32.431424 C15.758432,32.656064 16.432992,32.706624 16.813152,32.522624 C17.804192,32.041984 18.710432,31.386304 19.943072,30.617984 M42.966752,33.103424 C42.343392,32.656064 41.929952,32.419584 41.589792,32.104704 C40.194272,30.812224 38.960992,31.019904 37.392992,32.049024 C32.046752,35.558144 26.587552,38.894784 21.174112,42.301184 C20.686432,42.608064 20.219232,42.947584 19.722592,43.284864 C22.295072,45.797504 22.701152,45.853184 25.417952,44.142464 C25.688672,43.972224 25.959072,43.801344 26.229472,43.630784 C31.729312,40.171584 37.229152,36.712384 42.966752,33.103424 M27.112672,5.986304 C26.324832,5.462144 25.703712,5.143104 25.198112,4.694144 C24.018272,3.646464 23.024992,3.756864 21.686432,4.628224 C16.373152,8.086784 10.962272,11.396224 5.590112,14.764864 C4.882272,15.209024 4.188832,15.675584 3.298272,16.256064 C4.171872,16.830144 4.917472,17.235584 5.561632,17.764224 C6.486432,18.522944 7.265312,18.487744 8.260832,17.802624 C10.146272,16.504704 12.135072,15.357184 14.078112,14.142464 C18.320352,11.489984 22.560992,8.834624 27.112672,5.986304 M42.910112,20.666944 C42.910112,19.626624 42.824672,18.984384 42.926112,18.373824 C43.221152,16.602944 42.470432,15.565184 40.945312,14.677504 C37.675552,12.774464 34.488992,10.723264 31.326752,8.643904 C30.425632,8.051584 29.795552,8.083264 28.913632,8.643584 C23.108832,12.331904 17.268832,15.964544 11.444512,19.621504 C11.056672,19.865024 10.700832,20.158784 10.141152,20.567104 C10.785952,20.988224 11.305952,21.244864 11.723872,21.616064 C12.984032,22.735424 14.071072,22.640064 15.502432,21.685184 C19.758112,18.845504 24.172192,16.243264 28.447712,13.432064 C29.705952,12.604544 30.583712,12.612544 31.824352,13.460544 C35.334752,15.861184 38.949472,18.109184 42.910112,20.666944 M3.062752,28.779264 C3.062752,29.703104 3.139232,30.334464 3.048032,30.940544 C2.803232,32.564544 3.438752,33.529344 4.883552,34.357824 C8.346592,36.343744 11.717792,38.492864 15.080032,40.647744 C16.007392,41.242304 16.690272,41.272064 17.641632,40.667264 C23.392672,37.007744 29.188192,33.417984 34.964192,29.798144 C35.393312,29.529344 35.788512,29.206784 36.343712,28.804544 C35.747552,28.393024 35.284192,28.141824 34.904032,27.798784 C33.516512,26.547584 32.304672,26.661504 30.720672,27.722944 C26.431392,30.597504 21.964832,33.206144 17.635872,36.023744 C16.511072,36.755904 15.734752,36.671424 14.669152,35.973504 C11.418912,33.842304 8.098592,31.817024 4.800992,29.758464 C4.324512,29.460864 3.822432,29.205184 3.062752,28.779264 M45.963872,24.611904 C45.963872,27.704704 46.015392,30.799424 45.919392,33.889024 C45.900832,34.489024 45.456672,35.305024 44.955872,35.625664 C37.953312,40.106944 30.915872,44.534464 23.849312,48.913664 C23.401952,49.190784 22.491872,49.207744 22.050912,48.935744 C14.977632,44.566464 7.936672,40.145344 0.926752,35.676224 C0.464032,35.381184 0.053152,34.608384 0.047392,34.053504 C-0.014368,27.868544 -0.018848,21.681984 0.052192,15.496704 C0.058592,14.903104 0.525792,14.082944 1.030432,13.761024 C8.081312,9.255744 15.182752,4.830464 22.248032,0.347904 C22.986272,-0.120576 23.489952,-0.114496 24.228512,0.356544 C31.103072,4.741824 38.018592,9.062464 44.876832,13.473024 C45.415072,13.819264 45.893472,14.690624 45.915872,15.334784 C46.023072,18.424064 45.963872,21.519104 45.963872,24.611904" id="Fill-1" fill="#FFFFFF" mask="url(#mask-2)"></path>
            </g>
        </g>
    </g>
</svg>