<svg id="Layer_1" data-name="Layer 1" xmlns="http://www.w3.org/2000/svg" xmlns:xlink="http://www.w3.org/1999/xlink" viewBox="0 0 64 64"><defs><style>.cls-1,.cls-2,.cls-3{fill:none;stroke:#000;}.cls-1,.cls-3{stroke-linecap:round;stroke-linejoin:round;}.cls-1,.cls-2{stroke-width:3px;}.cls-2{stroke-miterlimit:10;stroke-dasharray:11.08 2.77;}.cls-3{stroke-width:2.69px;}</style><symbol id="Icon_Reconciliation" data-name="Icon Reconciliation" viewBox="0 0 51 52.5"><g id="Reconciliation"><path id="Rectangle" class="cls-1" d="M1.5,9.43A4.17,4.17,0,0,1,5.67,5.26H45.33A4.17,4.17,0,0,1,49.5,9.43v33.4A4.17,4.17,0,0,1,45.33,47H5.67A4.17,4.17,0,0,1,1.5,42.83Z"/><line id="Separator" class="cls-2" x1="26.01" x2="26.01" y2="52.5"/><g id="Left"><line class="cls-3" x1="8.11" y1="13.82" x2="18.11" y2="13.82"/><line class="cls-3" x1="8.11" y1="22.13" x2="18.11" y2="22.13"/></g><g id="Right"><line class="cls-3" x1="32.88" y1="13.51" x2="42.88" y2="13.51"/><line class="cls-3" x1="32.88" y1="21.82" x2="42.88" y2="21.82"/><line class="cls-3" x1="32.88" y1="30.13" x2="42.88" y2="30.13"/><line class="cls-3" x1="32.88" y1="38.43" x2="42.88" y2="38.43"/></g></g></symbol></defs><use width="51" height="52.5" transform="translate(6.5 4.75)" xlink:href="#Icon_Reconciliation"/></svg>