<svg id="Layer_1" data-name="Layer 1" xmlns="http://www.w3.org/2000/svg" xmlns:xlink="http://www.w3.org/1999/xlink" viewBox="0 0 64 64"><defs><style>.cls-1,.cls-2{fill:none;stroke:#000;stroke-linecap:round;stroke-linejoin:round;}.cls-1{stroke-width:3px;}.cls-2{stroke-width:2.95px;}</style><symbol id="Icon_Reports" data-name="Icon Reports" viewBox="0 0 51 44.74"><g id="Reports"><g id="Content"><path id="Rectangle" class="cls-1" d="M1.5,5.67A4.17,4.17,0,0,1,5.67,1.5H45.33A4.17,4.17,0,0,1,49.5,5.67v33.4a4.17,4.17,0,0,1-4.17,4.17H5.67A4.17,4.17,0,0,1,1.5,39.07Z"/><g id="Content-2" data-name="Content"><path id="Graph" class="cls-1" d="M8.59,38.85,12.79,33a1,1,0,0,1,.64-.39,1,1,0,0,1,.71.18l2.29,1.71a1,1,0,0,0,1.34-.19l5.16-6.89"/><g id="Pie"><path id="Oval_1" data-name="Oval 1" class="cls-1" d="M34.4,19.74A6.7,6.7,0,1,0,27.71,13,6.7,6.7,0,0,0,34.4,19.74Z"/><path id="Shape_1" data-name="Shape 1" class="cls-1" d="M35.83,6.51,34.4,13,41,12.23"/></g><g id="File"><path id="Rectangle-2" data-name="Rectangle" class="cls-1" d="M8.59,7.31a1,1,0,0,1,.95-1H19.1a1,1,0,0,1,1,1V18.78a1,1,0,0,1-1,1H9.54a1,1,0,0,1-.95-1Z"/><path id="Shape_2" data-name="Shape 2" class="cls-1" d="M12.41,10.18h3.83"/><path id="Shape_1-2" data-name="Shape 1" class="cls-1" d="M12.41,14h1.91"/></g><g id="Bars"><path id="Shape_2-2" data-name="Shape 2" class="cls-2" d="M29.49,32.14H32.2c.37,0,.68.21.68.46v6H28.81v-6C28.81,32.35,29.12,32.14,29.49,32.14Z"/><path id="Shape_1-3" data-name="Shape 1" class="cls-2" d="M37.08,29.35h2.71c.37,0,.67.21.67.47v8.82H36.4V29.82C36.4,29.56,36.7,29.35,37.08,29.35Z"/></g></g></g></g></symbol></defs><use width="51" height="44.74" transform="translate(6.5 8.63)" xlink:href="#Icon_Reports"/></svg>