<svg id="Layer_1" data-name="Layer 1" xmlns="http://www.w3.org/2000/svg" xmlns:xlink="http://www.w3.org/1999/xlink" viewBox="0 0 64 64"><defs><style>.cls-1{fill:none;stroke:#000;stroke-linecap:round;stroke-linejoin:round;stroke-width:3px;}</style><symbol id="Icon_Setup" data-name="Icon Setup" viewBox="0 0 48.58 51"><path id="Circle" class="cls-1" d="M24.29,34.5a9,9,0,1,0-9-9A9,9,0,0,0,24.29,34.5Z"/><path id="Gear" class="cls-1" d="M43.35,21.43l2.37-1.37a2.73,2.73,0,0,0,1-3.72l-3.28-5.68a2.73,2.73,0,0,0-3.72-1L37.35,11A19.63,19.63,0,0,0,30.29,7V4.22A2.72,2.72,0,0,0,27.57,1.5H21a2.72,2.72,0,0,0-2.72,2.72V7A19.41,19.41,0,0,0,11.22,11L8.86,9.67a2.73,2.73,0,0,0-3.72,1L1.87,16.34a2.73,2.73,0,0,0,1,3.72l2.38,1.37a19.59,19.59,0,0,0,0,8.14L2.86,30.94a2.73,2.73,0,0,0-1,3.72l3.29,5.68a2.72,2.72,0,0,0,3.71,1L11.23,40A19.59,19.59,0,0,0,18.29,44v2.74A2.72,2.72,0,0,0,21,49.5h6.56a2.72,2.72,0,0,0,2.72-2.72V44A19.26,19.26,0,0,0,37.36,40l2.36,1.37a2.72,2.72,0,0,0,3.72-1l3.28-5.68a2.72,2.72,0,0,0-1-3.71l-2.37-1.37A19.64,19.64,0,0,0,43.35,21.43Z"/></symbol></defs><use width="48.58" height="51" transform="translate(7.71 5.5)" xlink:href="#Icon_Setup"/></svg>