<svg id="Layer_1" data-name="Layer 1" xmlns="http://www.w3.org/2000/svg" xmlns:xlink="http://www.w3.org/1999/xlink" viewBox="0 0 64 64"><defs><style>.cls-1{fill:none;stroke:#000;stroke-linecap:round;stroke-linejoin:round;stroke-width:3px;}</style><symbol id="Icon_Support" data-name="Icon Support" viewBox="0 0 51 48.9"><g id="Support"><path id="Shape_5" data-name="Shape 5" class="cls-1" d="M33.85,45.31h2.08c4,0,7.3-2.22,7.3-6.25V34.53"/><path id="Shape_4" data-name="Shape 4" class="cls-1" d="M41.15,18.19a8.35,8.35,0,0,1,2.78,16.22,2.09,2.09,0,0,1-2.78-2Z"/><path id="Shape_3" data-name="Shape 3" class="cls-1" d="M9.85,18.19A8.35,8.35,0,0,0,7.07,34.41a2.09,2.09,0,0,0,2.78-2Z"/><path id="Shape_2" data-name="Shape 2" class="cls-1" d="M41.15,21.32V17.15a15.65,15.65,0,0,0-31.3,0v4.17"/><path id="Shape_1" data-name="Shape 1" class="cls-1" d="M24.46,43.23H32.8a1,1,0,0,1,1.05,1v2.09a1,1,0,0,1-1.05,1H24.46a2.08,2.08,0,0,1-2.09-2.09h0A2.08,2.08,0,0,1,24.46,43.23Z"/></g></symbol></defs><use width="51" height="48.9" transform="translate(6.5 6.55)" xlink:href="#Icon_Support"/></svg>